<?xml version="1.0" encoding="UTF-8" standalone="no"?>
<!-- Created with Inkscape (http://www.inkscape.org/) -->

<svg
   version="1.1"
   id="svg2"
   width="271.02667"
   height="220.36"
   viewBox="0 0 271.02667 220.36"
   sodipodi:docname="logo-blue.svg"
   inkscape:version="1.2.2 (b0a8486541, 2022-12-01)"
   xmlns:inkscape="http://www.inkscape.org/namespaces/inkscape"
   xmlns:sodipodi="http://sodipodi.sourceforge.net/DTD/sodipodi-0.dtd"
   xmlns="http://www.w3.org/2000/svg"
   xmlns:svg="http://www.w3.org/2000/svg">
  <defs
     id="defs6" />
  <sodipodi:namedview
     id="namedview4"
     pagecolor="#ffffff"
     bordercolor="#000000"
     borderopacity="0.25"
     inkscape:showpageshadow="2"
     inkscape:pageopacity="0.0"
     inkscape:pagecheckerboard="0"
     inkscape:deskcolor="#d1d1d1"
     showgrid="false"
     inkscape:zoom="3.5487384"
     inkscape:cx="133.2868"
     inkscape:cy="110.60269"
     inkscape:window-width="1920"
     inkscape:window-height="1016"
     inkscape:window-x="0"
     inkscape:window-y="0"
     inkscape:window-maximized="1"
     inkscape:current-layer="g12">
    <inkscape:page
       x="0"
       y="0"
       id="page8"
       width="271.02667"
       height="220.36" />
  </sodipodi:namedview>
  <g
     id="g10"
     inkscape:groupmode="layer"
     inkscape:label="Page 1"
     transform="matrix(1.3333333,0,0,-1.3333333,0,220.36)">
    <g
       id="g12"
       transform="scale(0.1)">
      <path
         d="M 2032.68,165.27 H 0 V 0 h 2032.68 v 165.27"
         style="fill:#004b84;fill-opacity:1;fill-rule:nonzero;stroke:none"
         id="path14" />
      <path
         d="M 707.871,1652.65 978.32,1538.51 V 1333.29 H 707.871 v 319.36"
         style="fill:#fbc267;fill-opacity:1;fill-rule:nonzero;stroke:none"
         id="path16" />
      <path
         d="m 1053.95,1538.51 270.45,114.14 v -319.36 h -270.45 v 205.22"
         style="fill:#fbc267;fill-opacity:1;fill-rule:nonzero;stroke:none"
         id="path18" />
      <path
         d="M 707.871,1254.66 H 978.32 V 713.73 L 707.871,517.891 v 736.769"
         style="fill:#fbc267;fill-opacity:1;fill-rule:nonzero;stroke:none"
         id="path20" />
      <path
         d="M 1053.95,1254.66 H 1324.4 V 517.891 L 1053.95,713.73 v 540.93"
         style="fill:#fbc267;fill-opacity:1;fill-rule:nonzero;stroke:none"
         id="path22" />
      <path
         d="m 104.805,204.219 c -22.4808,0 -43.8597,7.48 -61.0745,21.359 -24.1407,19.442 -38.01956,48.852 -38.01956,83.293 0,60.5 43.02736,104.918 99.93406,104.918 20.808,0 39.687,-6.117 57.734,-18.598 l -3.613,-38.32 c -15.547,16.66 -32.473,24.981 -51.907,24.981 -38.3082,0 -66.6207,-29.411 -66.6207,-72.711 0,-41.371 26.9258,-71.352 64.6797,-71.352 21.922,0 40.801,9.731 59.961,29.141 l -1.945,-43.571 c -17.489,-12.48 -37.754,-19.14 -59.129,-19.14"
         style="fill:#004b84;fill-opacity:1;fill-rule:nonzero;stroke:none"
         id="path24" />
      <path
         d="m 357.578,273.609 -31.914,73.282 -32.48,-73.282 z m -128.242,-63.031 96.602,202.934 h 2.773 L 421.98,210.578 H 385.625 L 369.793,245.57 H 280.41 l -16.094,-34.992 h -34.98"
         style="fill:#004b84;fill-opacity:1;fill-rule:nonzero;stroke:none"
         id="path26" />
      <path
         d="m 558.281,210.578 h -34.695 v 166.57 h -66.352 v 29.981 h 167.11 v -29.981 h -66.063 v -166.57"
         style="fill:#004b84;fill-opacity:1;fill-rule:nonzero;stroke:none"
         id="path28" />
      <path
         d="m 709.902,407.129 h 34.149 v -78.277 h 93.82 v 78.277 h 33.867 V 210.578 h -33.867 v 88.012 h -93.82 v -88.012 h -34.149 v 196.551"
         style="fill:#004b84;fill-opacity:1;fill-rule:nonzero;stroke:none"
         id="path30" />
      <path
         d="m 976.102,407.129 h 114.368 v -30.258 h -80.78 V 328.57 h 69.4 v -29.98 h -69.4 v -57.461 h 82.17 V 210.578 H 976.102 v 196.551"
         style="fill:#004b84;fill-opacity:1;fill-rule:nonzero;stroke:none"
         id="path32" />
      <path
         d="m 1238.97,241.949 c 50.25,0 78.01,26.391 78.01,66.922 0,40.801 -27.76,66.891 -78.01,66.891 h -17.76 V 241.949 Z m -51.9,165.18 h 47.47 c 75.78,0 117.69,-39.418 117.69,-98.258 0,-36.371 -16.66,-65.242 -48.57,-83.562 -20.82,-11.93 -42.76,-14.731 -69.12,-14.731 h -47.47 v 196.551"
         style="fill:#004b84;fill-opacity:1;fill-rule:nonzero;stroke:none"
         id="path34" />
      <path
         d="m 1488.17,317.461 c 30.54,0 45.8,11.391 45.8,31.367 0,21.66 -16.37,30.25 -48.85,30.25 h -12.77 v -61.617 z m -49.69,89.668 h 45.53 c 24.98,0 44.41,-1.68 61.35,-13.617 14.7,-10.25 23.04,-25.801 23.04,-41.91 0,-25.801 -15.27,-45.231 -43.02,-54.672 l 63.55,-86.352 h -40.25 l -59.67,81.633 h -16.66 v -81.633 h -33.87 v 196.551"
         style="fill:#004b84;fill-opacity:1;fill-rule:nonzero;stroke:none"
         id="path36" />
      <path
         d="m 1773.03,273.609 -31.91,73.282 -32.48,-73.282 z m -128.24,-63.031 96.6,202.934 h 2.77 l 93.27,-202.934 h -36.35 l -15.84,34.992 h -89.38 l -16.09,-34.992 h -34.98"
         style="fill:#004b84;fill-opacity:1;fill-rule:nonzero;stroke:none"
         id="path38" />
      <path
         d="m 1912.39,407.129 h 34.41 V 241.398 h 84.38 v -30.82 h -118.79 v 196.551"
         style="fill:#004b84;fill-opacity:1;fill-rule:nonzero;stroke:none"
         id="path40" />
      <path
         d="m 85.4492,52.3789 c 14.5117,0 26.1138,12.5313 26.1138,29.832 0,17.4102 -11.485,29.8281 -26.1138,29.8281 -14.6289,0 -25.9961,-12.5273 -25.9961,-29.8281 0,-17.1796 11.4844,-29.832 25.9961,-29.832 z M 53.0664,109.262 c 7.7734,10.679 19.7266,16.718 32.3828,16.718 10.8008,0 21.2498,-4.421 28.9058,-12.539 7.774,-8.25 11.954,-19.0504 11.954,-31.2301 0,-12.1914 -4.18,-22.9804 -11.954,-31.1211 -7.773,-8.121 -18.105,-12.6484 -28.9058,-12.6484 -10.7929,0 -21.0078,4.418 -28.789,12.5469 -7.8907,8.2422 -12.0704,18.9101 -12.0704,31.2226 0,10.211 2.9102,19.3791 8.4766,27.0511"
         style="fill:#ffffff;fill-opacity:1;fill-rule:nonzero;stroke:none"
         id="path42" />
      <path
         d="m 152.656,123.301 h 48.407 v -12.66 H 166.934 V 89.8594 h 30.293 V 77.332 H 166.934 V 41.1094 h -14.278 v 82.1916"
         style="fill:#ffffff;fill-opacity:1;fill-rule:nonzero;stroke:none"
         id="path44" />
      <path
         d="m 307.266,52.3789 c 14.511,0 26.121,12.5313 26.121,29.832 0,17.4102 -11.492,29.8281 -26.121,29.8281 -14.629,0 -25.996,-12.5273 -25.996,-29.8281 0,-17.1796 11.484,-29.832 25.996,-29.832 z m -32.383,56.8831 c 7.773,10.679 19.734,16.718 32.383,16.718 10.8,0 21.25,-4.421 28.906,-12.539 7.773,-8.25 11.953,-19.0504 11.953,-31.2301 0,-12.1914 -4.18,-22.9804 -11.953,-31.1211 -7.774,-8.121 -18.106,-12.6484 -28.906,-12.6484 -10.793,0 -21.008,4.418 -28.789,12.5469 -7.891,8.2422 -12.071,18.9101 -12.071,31.2226 0,10.211 2.91,19.3791 8.477,27.0511"
         style="fill:#ffffff;fill-opacity:1;fill-rule:nonzero;stroke:none"
         id="path46" />
      <path
         d="m 388.172,75.3594 c 0,-15.9102 6.848,-24.0313 19.973,-24.0313 12.878,0 19.726,8.2422 19.726,24.3711 v 47.6018 h 12.891 V 75.4805 c 0,-24.0391 -13.36,-37.0391 -32.969,-37.0391 -21.477,0 -34.238,12.7695 -34.238,36.7969 v 48.0627 h 14.617 V 75.3594"
         style="fill:#ffffff;fill-opacity:1;fill-rule:nonzero;stroke:none"
         id="path48" />
      <path
         d="m 492.52,85.8008 c 12.773,0 19.16,4.7695 19.16,13.1211 0,9.0581 -6.856,12.6601 -20.43,12.6601 h -5.344 V 85.8008 Z m -20.774,37.5002 h 19.035 c 10.449,0 18.574,-0.699 25.653,-5.68 6.152,-4.301 9.64,-10.801 9.64,-17.543 0,-10.7772 -6.386,-18.9178 -17.988,-22.8671 l 26.582,-36.1015 h -16.836 l -24.961,34.1289 h -6.965 V 41.1094 h -14.16 v 82.1916"
         style="fill:#ffffff;fill-opacity:1;fill-rule:nonzero;stroke:none"
         id="path50" />
      <path
         d="m 601.863,123.301 h 14.395 V 54 h 35.285 V 41.1094 h -49.68 v 82.1916"
         style="fill:#ffffff;fill-opacity:1;fill-rule:nonzero;stroke:none"
         id="path52" />
      <path
         d="M 721.582,67.4609 708.242,98.1016 694.656,67.4609 Z M 667.961,41.1094 708.359,125.98 h 1.153 l 39.004,-84.8706 h -15.207 l -6.61,14.6289 h -37.383 l -6.73,-14.6289 h -14.625"
         style="fill:#ffffff;fill-opacity:1;fill-rule:nonzero;stroke:none"
         id="path54" />
      <path
         d="m 789.961,54.2383 c 21.004,0 32.617,11.0234 32.617,27.9726 0,17.0704 -11.613,27.9691 -32.617,27.9691 h -7.434 V 54.2383 Z m -21.707,69.0627 h 19.851 c 31.68,0 49.208,-16.481 49.208,-41.0901 0,-15.2109 -6.961,-27.2812 -20.309,-34.9492 -8.703,-4.9804 -17.883,-6.1523 -28.899,-6.1523 h -19.851 v 82.1916"
         style="fill:#ffffff;fill-opacity:1;fill-rule:nonzero;stroke:none"
         id="path56" />
      <path
         d="m 876.309,78.4883 -30.528,44.8127 h 16.942 l 21.828,-32.5002 23.672,32.5002 h 15.554 L 890.809,78.7305 V 41.1094 h -14.5 v 37.3789"
         style="fill:#ffffff;fill-opacity:1;fill-rule:nonzero;stroke:none"
         id="path58" />
      <path
         d="m 1018.77,52.3789 c 14.52,0 26.12,12.5313 26.12,29.832 0,17.4102 -11.49,29.8281 -26.12,29.8281 -14.63,0 -25.997,-12.5273 -25.997,-29.8281 0,-17.1796 11.487,-29.832 25.997,-29.832 z m -32.383,56.8831 c 7.773,10.679 19.733,16.718 32.383,16.718 10.8,0 21.25,-4.421 28.91,-12.539 7.77,-8.25 11.95,-19.0504 11.95,-31.2301 0,-12.1914 -4.18,-22.9804 -11.95,-31.1211 -7.77,-8.121 -18.11,-12.6484 -28.91,-12.6484 -10.79,0 -21.008,4.418 -28.79,12.5469 -7.89,8.2422 -12.07,18.9101 -12.07,31.2226 0,10.211 2.91,19.3791 8.477,27.0511"
         style="fill:#ffffff;fill-opacity:1;fill-rule:nonzero;stroke:none"
         id="path60" />
      <path
         d="m 1085.98,123.301 h 48.4 v -12.66 h -34.12 V 89.8594 h 30.29 V 77.332 h -30.29 V 41.1094 h -14.28 v 82.1916"
         style="fill:#ffffff;fill-opacity:1;fill-rule:nonzero;stroke:none"
         id="path62" />
      <path
         d="m 1239.96,41.1094 h -14.51 v 69.6526 h -27.73 v 12.539 h 69.86 v -12.539 h -27.62 V 41.1094"
         style="fill:#ffffff;fill-opacity:1;fill-rule:nonzero;stroke:none"
         id="path64" />
      <path
         d="m 1289.87,123.301 h 14.27 V 90.5703 h 39.24 v 32.7307 h 14.16 V 41.1094 h -14.16 v 36.8008 h -39.24 V 41.1094 h -14.27 v 82.1916"
         style="fill:#ffffff;fill-opacity:1;fill-rule:nonzero;stroke:none"
         id="path66" />
      <path
         d="m 1389.57,123.301 h 47.84 v -12.66 h -33.77 V 90.4492 h 29 v -12.539 h -29 V 53.8906 h 34.35 V 41.1094 h -48.42 v 82.1916"
         style="fill:#ffffff;fill-opacity:1;fill-rule:nonzero;stroke:none"
         id="path68" />
      <path
         d="m 1552.33,67.4609 -13.36,30.6407 -13.58,-30.6407 z m -53.63,-26.3515 40.39,84.8706 h 1.15 l 39,-84.8706 h -15.19 l -6.62,14.6289 h -37.39 l -6.72,-14.6289 h -14.62"
         style="fill:#ffffff;fill-opacity:1;fill-rule:nonzero;stroke:none"
         id="path70" />
      <path
         d="m 1598.99,125.98 h 1.5 l 52.93,-54.9214 v 52.2424 h 14.04 V 38.4414 h -1.5 l -53.05,54.918 v -52.25 h -13.92 V 125.98"
         style="fill:#ffffff;fill-opacity:1;fill-rule:nonzero;stroke:none"
         id="path72" />
      <path
         d="m 1737.7,112.969 c -17.07,0 -29.02,-12.309 -29.02,-30.6487 0,-17.8711 11.6,-30.1719 29.14,-30.1719 5.21,0 10.33,1.2735 16.01,3.4727 v 17.1875 h -19.86 v 12.6523 h 34.02 V 46.5703 c -9.74,-5.4609 -20.08,-8.2422 -30.29,-8.2422 -26.13,0 -43.89,18.4532 -43.89,43.8828 0,25.5271 18.23,43.9881 43.89,43.9881 9.16,0 17.75,-2.308 26,-6.847 l -1.27,-16.954 c -7.68,6.973 -15.92,10.571 -24.73,10.571"
         style="fill:#ffffff;fill-opacity:1;fill-rule:nonzero;stroke:none"
         id="path74" />
      <path
         d="m 1796.55,123.301 h 47.81 v -12.66 h -33.77 V 90.4492 h 29.02 v -12.539 h -29.02 V 53.8906 h 34.36 V 41.1094 h -48.4 v 82.1916"
         style="fill:#ffffff;fill-opacity:1;fill-rule:nonzero;stroke:none"
         id="path76" />
      <path
         d="m 1873.15,123.301 h 14.39 V 54 h 35.3 V 41.1094 h -49.69 v 82.1916"
         style="fill:#ffffff;fill-opacity:1;fill-rule:nonzero;stroke:none"
         id="path78" />
      <path
         d="m 1963.34,50.9883 c 8.95,0 14.52,4.9922 14.52,11.4922 0,6.1484 -3.83,10.0976 -12.07,14.9687 l -6.16,3.711 c -11.38,6.7304 -17.3,13.1211 -17.3,23.2108 0,12.66 9.86,21.711 24.96,21.711 7.19,0 13.81,-1.621 20.66,-4.992 l -0.47,-13.11 c -7.65,4.18 -13.92,6.489 -19.16,6.489 -7.77,0 -12.18,-3.828 -12.18,-9.391 0,-5.1092 3.73,-8.3592 11.27,-12.7772 l 5.91,-3.4727 c 12.54,-7.4375 19.05,-14.6289 19.05,-26.0078 0,-14.2812 -10.69,-24.4922 -28.32,-24.4922 -7.8,0 -15.34,1.6328 -22.19,4.8711 l -1.27,16.1289 c 8.48,-5.4375 15.78,-8.3398 22.75,-8.3398"
         style="fill:#ffffff;fill-opacity:1;fill-rule:nonzero;stroke:none"
         id="path80" />
    </g>
  </g>
</svg>
